<svg width="1255" height="1104" viewBox="0 0 1255 1104" fill="none" xmlns="http://www.w3.org/2000/svg">
<mask id="mask0_3911_12427" style="mask-type:alpha" maskUnits="userSpaceOnUse" x="0" y="0" width="1255" height="1105">
<path d="M732.695 1021.08L738.206 1004.9L743.427 999.697V995.074L736.756 991.029H726.893L717.321 985.828L712.68 975.138L713.841 965.892L719.352 960.691L719.642 957.224L714.711 953.179L716.451 950.579L726.893 948.556L728.054 951.446L734.145 951.157L740.526 945.089L748.938 943.934V941.911L740.526 938.155C740.526 938.155 729.794 943.356 722.833 942.778L719.352 946.245L711.81 942.489L706.589 941.911L704.559 938.444L706.009 935.266L706.299 927.753L712.68 920.53L719.932 927.176H747.488L755.319 912.729L758.8 885.859C758.8 885.859 757.35 876.035 755.61 873.146H752.419L745.457 863.322L747.488 860.433L746.328 856.099L741.687 857.832L735.595 848.009L741.687 845.409L749.808 837.03L762.571 835.874L758.22 827.495L758.51 822.583L760.251 818.538L753.869 816.805L752.999 812.759H748.358V809.581L745.457 806.114L741.397 809.87L735.885 809.003L743.137 801.491L754.739 800.335L766.342 799.18L771.563 790.801L779.104 782.711L781.715 761.33L768.952 757.863V749.484L776.494 746.306L784.326 756.418L796.218 756.996L800.569 753.818L805.5 758.152L814.492 758.441L816.522 754.107L814.492 748.039L821.743 746.883L825.224 748.906L837.117 748.617L839.437 740.527V732.148L837.697 729.548L841.758 727.236L844.658 729.548L851.91 727.236L845.529 700.077L840.597 688.52L801.439 655.871L798.539 650.959L792.157 635.645H789.547L786.646 630.734H777.944L773.013 621.199L772.143 615.998L774.173 613.109V609.642H768.372L768.662 604.152L770.113 595.195H764.892L763.441 597.507L759.96 597.218L759.38 592.595L762.861 591.439L762.571 587.972L759.09 586.238L755.319 588.55L754.449 592.595L752.419 595.195L745.457 594.328L741.397 590.861L739.076 594.04L735.595 593.462L733.855 596.062L735.015 598.085L733.275 600.107L734.435 602.708L733.275 605.019L729.794 605.308L728.634 609.642L730.664 611.664L734.145 612.82L735.885 615.709L728.344 624.088L729.504 628.422L724.863 631.312L720.512 631.6L717.321 629.578L710.94 630.734L712.39 626.4L717.321 624.377L713.841 613.976L709.78 615.998L704.269 615.42L703.108 612.531L695.277 613.398L684.544 602.708V593.173L690.346 583.349L709.78 572.948L710.65 568.614L721.962 559.657L722.253 548.1L717.902 543.477H714.711L711.81 546.655L706.009 514.584L695.857 510.25L695.567 503.605L685.125 500.137L689.476 486.558L688.896 479.912L684.544 479.623L689.185 475.578L686.285 472.978L681.934 476.445L679.613 472.978L682.514 469.8L681.644 464.599L686.575 462.577L689.476 463.732L734.725 335.159L736.465 329.38H748.068L747.778 331.402L752.999 335.447L759.67 335.159L767.502 345.271L765.472 349.605L787.806 355.384L790.707 357.984L790.997 366.652L784.326 374.453L782.005 424.149H784.906L784.326 435.706L787.806 435.995L797.088 431.661L821.743 430.505L871.054 420.104C871.054 420.104 875.985 418.081 878.886 419.526L883.527 421.548L891.358 431.372L892.518 434.261L900.93 441.485L978.667 440.907L981.567 439.173L985.048 439.462L994.04 425.594V422.415L1014.05 402.768L1146.61 397.856L1170.4 374.742C1170.4 374.742 1181.13 363.185 1192.15 360.006L1194.76 356.828L1191.86 350.183L1195.92 349.027L1198.82 343.249L1211.3 330.536L1224.35 324.757L1227.25 313.489V309.155L1254.8 277.95L1243.49 267.26L1228.7 261.77L1216.81 266.104L1204.62 258.014L1179.39 259.17L1170.98 262.059L1128.34 264.082L1117.9 259.17L1107.16 246.746L1091.21 248.769C1091.21 248.769 1081.93 240.39 1075.26 239.523L1048.28 247.902L1004.77 242.412L991.429 239.523L988.529 236.633L997.521 225.943L998.391 220.742L977.796 199.65L981.277 189.827V182.604L975.476 177.403H967.064L954.592 182.026H931.387L925.875 174.514L916.013 167.29L916.884 161.512L917.174 147.065L905.281 134.93L899.48 131.174L891.068 122.217L886.137 111.238L876.855 101.125L873.084 95.3468L867.283 92.1686H849.299L843.788 87.2568L842.918 78.5889L838.567 73.3882L821.743 69.6321L810.141 63.5645L803.47 51.4295L776.204 42.4727L765.762 14.7354L745.457 33.8048L715.871 21.0919L677.583 31.7823L671.782 27.1594L664.82 25.1369L660.179 16.7579L657.279 13.8686L645.676 8.37896H642.776L632.334 9.82361L628.853 13.8686L614.93 14.4465L609.709 17.6247H589.695L586.794 4.62288C586.794 4.62288 560.108 3.75609 546.765 0L533.713 5.77859L523.561 19.6472L530.812 23.1144L551.987 45.073C551.987 45.073 554.017 47.9623 549.086 51.1406C544.155 54.3188 518.63 68.1874 484.692 95.3468L466.708 91.3018C466.708 91.3018 458.297 125.684 448.725 148.221L445.824 155.733L429.581 169.602L410.727 176.536L373.019 175.958C373.019 175.958 367.218 176.825 364.607 180.003C361.706 183.181 357.355 187.226 357.355 187.226L353.295 199.939L314.136 218.142L286.29 238.945L276.718 228.255L252.643 238.656L251.483 299.62L224.797 305.688L212.615 309.155L200.722 314.933L196.952 314.356L191.44 310.888L152.282 305.399L154.603 390.055L174.327 443.218L170.266 444.374L165.915 444.663L164.175 446.685L160.114 446.396L158.663 444.663L154.023 446.685L154.313 449.286L148.511 454.487V457.954L134.588 457.665L128.787 460.265L125.887 472.111H122.986L118.635 467.199L109.933 466.333L108.193 471.244L105.292 471.822V474.712L111.093 480.49L107.613 483.091L104.132 488.58H99.7811V491.758L93.3997 495.226L90.2091 501.004L87.3084 500.715V496.092L82.9575 495.803L81.2171 489.158L78.8967 485.113V478.757L61.493 489.447L44.0893 497.826L6.09129 517.184V519.496L9.57202 520.074L9.28196 524.119L13.0528 524.407L13.3428 529.897L16.2434 530.186L21.1745 528.164L24.0751 537.987H19.144L15.9534 540.876L15.6633 547.811L12.7627 555.323L11.6024 561.391L4.93104 562.257L6.67141 576.704L6.96147 579.304L4.93104 581.327V583.349L9.28196 589.417L2.90061 588.261L0 597.796L7.25153 601.841L13.3428 597.507L11.6024 605.597L14.5031 609.931L21.1745 613.398L15.0832 630.734L16.2434 639.113L18.5639 639.402L18.2739 643.735L15.3732 643.447V652.692L19.4341 656.448L19.144 659.338L16.5335 660.782L16.8236 662.805L20.3043 664.25L22.3347 667.139V670.028L18.2739 671.184V673.495L21.7546 674.073L21.4645 678.985H24.9453L23.785 684.763L22.6248 687.942L28.7161 692.854L31.0366 687.942L46.6999 685.63L45.5396 692.565L41.4788 702.388H38.2881L35.0974 721.169L20.3043 718.857L5.80122 718.279L6.09129 725.792L12.7627 730.992L10.7323 737.349L13.3428 738.505L8.70184 746.594V748.617L14.5031 747.461L14.7931 752.951L10.4422 755.84L12.4726 758.73V763.064L9.86208 764.508V768.264L12.7627 770.287L9.28196 775.776L15.0832 788.778L21.4645 794.268L21.7546 799.758L25.5254 801.202L25.8154 809.003L28.426 811.893H35.6775L35.3875 816.227L33.357 818.249L24.9453 816.227L20.5943 817.671L20.3043 820.272L22.9148 822.294L23.2049 824.894L29.8763 829.517L33.357 829.806L36.8378 832.696L52.211 831.54L67.2942 831.829L93.1097 837.03L92.8196 843.675L92.5295 849.165L94.56 853.21L98.9109 855.521L106.452 866.789L105.582 871.123L111.093 881.814L111.964 884.703L134.008 902.328L144.16 895.682L153.152 886.148L169.106 888.17L177.227 898.861L185.639 904.35L190.28 913.307H191.73L193.761 910.995L207.684 904.35L211.745 903.194L217.256 894.815L225.088 895.104V899.149L229.729 903.483L230.019 911.573L250.033 911.862L249.743 907.239H257.574V913.018L270.917 912.729L272.948 915.618L297.023 915.329L297.313 917.93L294.992 923.42L295.282 929.198L301.954 936.71L299.923 940.466L309.785 967.915L316.457 967.626L316.747 971.96L329.8 971.671L332.12 980.628L335.021 978.027L337.341 971.382L340.532 973.404H352.714L357.936 970.515L364.317 970.226L367.218 972.538L367.798 982.072L372.729 982.361L377.08 988.14L379.11 985.25L383.461 984.962L388.392 978.316H392.743L396.514 974.849H398.544L399.124 971.382L408.116 970.804L410.147 974.271L409.857 980.917L412.757 983.806L409.566 986.695L410.437 1000.27L417.108 1006.34L423.779 1005.76L426.97 1007.21L427.55 1022.52L442.343 1029.17L442.053 1034.66L448.435 1041.88L457.137 1038.7L462.938 1038.99L462.648 1043.61L473.38 1048.81L473.67 1055.75C473.67 1055.75 476.571 1059.22 477.151 1058.64C477.441 1058.06 482.082 1051.42 482.082 1051.42L489.913 1054.3L494.554 1058.93L498.905 1059.79L505.577 1065L509.348 1062.97L512.538 1073.09H515.439L515.149 1062.97L512.248 1061.24L511.958 1054.3H503.546L503.836 1044.77L505.867 1043.33V1037.26L511.668 1036.97L511.958 1042.17H515.439L516.889 1039.86L520.37 1039.57L535.743 1049.1L540.964 1063.26L550.536 1060.37C550.536 1060.37 557.498 1058.64 560.398 1050.26H568.23L569.1 1052.86L567.07 1055.46V1058.35H573.161L573.451 1061.24L584.763 1062.68L586.214 1057.48L607.388 1057.19L610.869 1060.08L615.8 1060.37L617.54 1064.13L627.112 1069.33L639.005 1088.98H652.928C652.928 1088.98 656.409 1098.51 668.011 1100.24L672.072 1104H675.553L683.094 1092.44L697.597 1086.38L697.887 1078.29L708.33 1066.73L709.2 1060.08L701.658 1042.17L717.031 1022.52L722.253 1022.23C723.413 1020.5 728.344 1018.48 732.695 1021.08Z" fill="#E0E0E0"/>
</mask>
<g mask="url(#mask0_3911_12427)">
<rect x="-89.8545" width="1376.19" height="1257.96" fill="url(#paint0_linear_3911_12427)"/>
</g>
<path d="M153.325 637.621L156.272 639.377L156.947 637.929L157.266 637.024L157.923 635.775L158.42 635.051L158.367 634.507L157.923 633.186L158.899 632.444L160 633.367L160.71 633.186L161.544 632.951L162.201 632.571L162.538 632.335L163.089 633.313L164.314 634.888L165.627 634.127L167.03 633.132L168.343 631.955L169.763 630L173.012 630.579L172.479 631.14L172.391 631.575L171.095 633.693L172.391 634.471L172.728 634.779L172.905 635.304L173.101 635.702L173.438 636.01L173.899 636.155L173.704 636.535L173.58 637.169L173.314 637.748L172.994 638.2L172.302 638.852L171.893 639.142L171.521 639.287H171.148L170.669 639.087H170.154L169.728 639.287L169.604 639.649L169.675 640.065L169.905 640.771L170.243 641.441L170.367 642.129V642.979L170.012 644.047L173.349 645.604L173.669 645.912L173.899 646.564L175 649.17L174.414 649.496L174.095 649.424L173.74 649.044L173.473 648.899L172.959 648.971L172.87 649.243V649.641H172H171.698L171.556 649.84V650.112L171.325 650.456L171.254 650.89L171.166 651.252L170.97 651.596L170.757 651.994L170.544 652.32L170.438 652.972L170.367 653.732L167.775 653.334L167.136 654.583L168.308 655.796L165.698 659L157.284 653.913L155.189 654.529L155.331 654.674L153.45 655.271L152.473 653.949L152.686 653.75L152.988 653.859L153.077 653.66L153.29 653.75L153.538 653.443L153.201 653.28L153.698 653.189L153.947 653.026H154.337L154.479 652.918V652.791H154.905L155.136 652.881L155.367 652.791L154.124 652.012L153.254 651.27L148 646.672V646.437L148.639 646.202L151 644.808L151.746 643.848L152.633 642.599L152.598 641.839L151.479 640.68L151.302 640.753L151 640.3L151.834 639.504L152.633 638.653L153.325 637.621Z" fill="#EAD6F0"/>
<defs>
<linearGradient id="paint0_linear_3911_12427" x1="598.239" y1="0" x2="598.239" y2="1257.96" gradientUnits="userSpaceOnUse">
<stop stop-color="#EAECFF"/>
<stop offset="1" stop-color="#FFF5F5"/>
</linearGradient>
</defs>
</svg>
