<svg width="1255" height="1104" viewBox="0 0 1255 1104" fill="none" xmlns="http://www.w3.org/2000/svg">
<mask id="mask0_3911_12428" style="mask-type:alpha" maskUnits="userSpaceOnUse" x="0" y="0" width="1255" height="1105">
<path d="M732.695 1021.08L738.206 1004.9L743.427 999.697V995.074L736.756 991.029H726.893L717.321 985.828L712.68 975.138L713.841 965.892L719.352 960.691L719.642 957.224L714.711 953.179L716.451 950.579L726.893 948.556L728.054 951.446L734.145 951.157L740.526 945.089L748.938 943.934V941.911L740.526 938.155C740.526 938.155 729.794 943.356 722.833 942.778L719.352 946.245L711.81 942.489L706.589 941.911L704.559 938.444L706.009 935.266L706.299 927.753L712.68 920.53L719.932 927.176H747.488L755.319 912.729L758.8 885.859C758.8 885.859 757.35 876.035 755.61 873.146H752.419L745.457 863.322L747.488 860.433L746.328 856.099L741.687 857.832L735.595 848.009L741.687 845.409L749.808 837.03L762.571 835.874L758.22 827.495L758.51 822.583L760.251 818.538L753.869 816.805L752.999 812.759H748.358V809.581L745.457 806.114L741.397 809.87L735.885 809.003L743.137 801.491L754.739 800.335L766.342 799.18L771.563 790.801L779.104 782.711L781.715 761.33L768.952 757.863V749.484L776.494 746.306L784.326 756.418L796.218 756.996L800.569 753.818L805.5 758.152L814.492 758.441L816.522 754.107L814.492 748.039L821.743 746.883L825.224 748.906L837.117 748.617L839.437 740.527V732.148L837.697 729.548L841.758 727.236L844.658 729.548L851.91 727.236L845.529 700.077L840.597 688.52L801.439 655.871L798.539 650.959L792.157 635.645H789.547L786.646 630.734H777.944L773.013 621.199L772.143 615.998L774.173 613.109V609.642H768.372L768.662 604.152L770.113 595.195H764.892L763.441 597.507L759.96 597.218L759.38 592.595L762.861 591.439L762.571 587.972L759.09 586.238L755.319 588.55L754.449 592.595L752.419 595.195L745.457 594.328L741.397 590.861L739.076 594.04L735.595 593.462L733.855 596.062L735.015 598.085L733.275 600.107L734.435 602.708L733.275 605.019L729.794 605.308L728.634 609.642L730.664 611.664L734.145 612.82L735.885 615.709L728.344 624.088L729.504 628.422L724.863 631.312L720.512 631.6L717.321 629.578L710.94 630.734L712.39 626.4L717.321 624.377L713.841 613.976L709.78 615.998L704.269 615.42L703.108 612.531L695.277 613.398L684.544 602.708V593.173L690.346 583.349L709.78 572.948L710.65 568.614L721.962 559.657L722.253 548.1L717.902 543.477H714.711L711.81 546.655L706.009 514.584L695.857 510.25L695.567 503.605L685.125 500.137L689.476 486.558L688.896 479.912L684.544 479.623L689.185 475.578L686.285 472.978L681.934 476.445L679.613 472.978L682.514 469.8L681.644 464.599L686.575 462.577L689.476 463.732L734.725 335.159L736.465 329.38H748.068L747.778 331.402L752.999 335.447L759.67 335.159L767.502 345.271L765.472 349.605L787.806 355.384L790.707 357.984L790.997 366.652L784.326 374.453L782.005 424.149H784.906L784.326 435.706L787.806 435.995L797.088 431.661L821.743 430.505L871.054 420.104C871.054 420.104 875.985 418.081 878.886 419.526L883.527 421.548L891.358 431.372L892.518 434.261L900.93 441.485L978.667 440.907L981.567 439.173L985.048 439.462L994.04 425.594V422.415L1014.05 402.768L1146.61 397.856L1170.4 374.742C1170.4 374.742 1181.13 363.185 1192.15 360.006L1194.76 356.828L1191.86 350.183L1195.92 349.027L1198.82 343.249L1211.3 330.536L1224.35 324.757L1227.25 313.489V309.155L1254.8 277.95L1243.49 267.26L1228.7 261.77L1216.81 266.104L1204.62 258.014L1179.39 259.17L1170.98 262.059L1128.34 264.082L1117.9 259.17L1107.16 246.746L1091.21 248.769C1091.21 248.769 1081.93 240.39 1075.26 239.523L1048.28 247.902L1004.77 242.412L991.429 239.523L988.529 236.633L997.521 225.943L998.391 220.742L977.796 199.65L981.277 189.827V182.604L975.476 177.403H967.064L954.592 182.026H931.387L925.875 174.514L916.013 167.29L916.884 161.512L917.174 147.065L905.281 134.93L899.48 131.174L891.068 122.217L886.137 111.238L876.855 101.125L873.084 95.3468L867.283 92.1686H849.299L843.788 87.2568L842.918 78.5889L838.567 73.3882L821.743 69.6321L810.141 63.5645L803.47 51.4295L776.204 42.4727L765.762 14.7354L745.457 33.8048L715.871 21.0919L677.583 31.7823L671.782 27.1594L664.82 25.1369L660.179 16.7579L657.279 13.8686L645.676 8.37896H642.776L632.334 9.82361L628.853 13.8686L614.93 14.4465L609.709 17.6247H589.695L586.794 4.62288C586.794 4.62288 560.108 3.75609 546.765 0L533.713 5.77859L523.561 19.6472L530.812 23.1144L551.987 45.073C551.987 45.073 554.017 47.9623 549.086 51.1406C544.155 54.3188 518.63 68.1874 484.692 95.3468L466.708 91.3018C466.708 91.3018 458.297 125.684 448.725 148.221L445.824 155.733L429.581 169.602L410.727 176.536L373.019 175.958C373.019 175.958 367.218 176.825 364.607 180.003C361.706 183.181 357.355 187.226 357.355 187.226L353.295 199.939L314.136 218.142L286.29 238.945L276.718 228.255L252.643 238.656L251.483 299.62L224.797 305.688L212.615 309.155L200.722 314.933L196.952 314.356L191.44 310.888L152.282 305.399L154.603 390.055L174.327 443.218L170.266 444.374L165.915 444.663L164.175 446.685L160.114 446.396L158.663 444.663L154.023 446.685L154.313 449.286L148.511 454.487V457.954L134.588 457.665L128.787 460.265L125.887 472.111H122.986L118.635 467.199L109.933 466.333L108.193 471.244L105.292 471.822V474.712L111.093 480.49L107.613 483.091L104.132 488.58H99.7811V491.758L93.3997 495.226L90.2091 501.004L87.3084 500.715V496.092L82.9575 495.803L81.2171 489.158L78.8967 485.113V478.757L61.493 489.447L44.0893 497.826L6.09129 517.184V519.496L9.57202 520.074L9.28196 524.119L13.0528 524.407L13.3428 529.897L16.2434 530.186L21.1745 528.164L24.0751 537.987H19.144L15.9534 540.876L15.6633 547.811L12.7627 555.323L11.6024 561.391L4.93104 562.257L6.67141 576.704L6.96147 579.304L4.93104 581.327V583.349L9.28196 589.417L2.90061 588.261L0 597.796L7.25153 601.841L13.3428 597.507L11.6024 605.597L14.5031 609.931L21.1745 613.398L15.0832 630.734L16.2434 639.113L18.5639 639.402L18.2739 643.735L15.3732 643.447V652.692L19.4341 656.448L19.144 659.338L16.5335 660.782L16.8236 662.805L20.3043 664.25L22.3347 667.139V670.028L18.2739 671.184V673.495L21.7546 674.073L21.4645 678.985H24.9453L23.785 684.763L22.6248 687.942L28.7161 692.854L31.0366 687.942L46.6999 685.63L45.5396 692.565L41.4788 702.388H38.2881L35.0974 721.169L20.3043 718.857L5.80122 718.279L6.09129 725.792L12.7627 730.992L10.7323 737.349L13.3428 738.505L8.70184 746.594V748.617L14.5031 747.461L14.7931 752.951L10.4422 755.84L12.4726 758.73V763.064L9.86208 764.508V768.264L12.7627 770.287L9.28196 775.776L15.0832 788.778L21.4645 794.268L21.7546 799.758L25.5254 801.202L25.8154 809.003L28.426 811.893H35.6775L35.3875 816.227L33.357 818.249L24.9453 816.227L20.5943 817.671L20.3043 820.272L22.9148 822.294L23.2049 824.894L29.8763 829.517L33.357 829.806L36.8378 832.696L52.211 831.54L67.2942 831.829L93.1097 837.03L92.8196 843.675L92.5295 849.165L94.56 853.21L98.9109 855.521L106.452 866.789L105.582 871.123L111.093 881.814L111.964 884.703L134.008 902.328L144.16 895.682L153.152 886.148L169.106 888.17L177.227 898.861L185.639 904.35L190.28 913.307H191.73L193.761 910.995L207.684 904.35L211.745 903.194L217.256 894.815L225.088 895.104V899.149L229.729 903.483L230.019 911.573L250.033 911.862L249.743 907.239H257.574V913.018L270.917 912.729L272.948 915.618L297.023 915.329L297.313 917.93L294.992 923.42L295.282 929.198L301.954 936.71L299.923 940.466L309.785 967.915L316.457 967.626L316.747 971.96L329.8 971.671L332.12 980.628L335.021 978.027L337.341 971.382L340.532 973.404H352.714L357.936 970.515L364.317 970.226L367.218 972.538L367.798 982.072L372.729 982.361L377.08 988.14L379.11 985.25L383.461 984.962L388.392 978.316H392.743L396.514 974.849H398.544L399.124 971.382L408.116 970.804L410.147 974.271L409.857 980.917L412.757 983.806L409.566 986.695L410.437 1000.27L417.108 1006.34L423.779 1005.76L426.97 1007.21L427.55 1022.52L442.343 1029.17L442.053 1034.66L448.435 1041.88L457.137 1038.7L462.938 1038.99L462.648 1043.61L473.38 1048.81L473.67 1055.75C473.67 1055.75 476.571 1059.22 477.151 1058.64C477.441 1058.06 482.082 1051.42 482.082 1051.42L489.913 1054.3L494.554 1058.93L498.905 1059.79L505.577 1065L509.348 1062.97L512.538 1073.09H515.439L515.149 1062.97L512.248 1061.24L511.958 1054.3H503.546L503.836 1044.77L505.867 1043.33V1037.26L511.668 1036.97L511.958 1042.17H515.439L516.889 1039.86L520.37 1039.57L535.743 1049.1L540.964 1063.26L550.536 1060.37C550.536 1060.37 557.498 1058.64 560.398 1050.26H568.23L569.1 1052.86L567.07 1055.46V1058.35H573.161L573.451 1061.24L584.763 1062.68L586.214 1057.48L607.388 1057.19L610.869 1060.08L615.8 1060.37L617.54 1064.13L627.112 1069.33L639.005 1088.98H652.928C652.928 1088.98 656.409 1098.51 668.011 1100.24L672.072 1104H675.553L683.094 1092.44L697.597 1086.38L697.887 1078.29L708.33 1066.73L709.2 1060.08L701.658 1042.17L717.031 1022.52L722.253 1022.23C723.413 1020.5 728.344 1018.48 732.695 1021.08Z" fill="#E0E0E0"/>
</mask>
<g mask="url(#mask0_3911_12428)">
<rect x="-89.8545" width="1376.19" height="1257.96" fill="url(#paint0_linear_3911_12428)"/>
</g>
<path d="M213.377 654.863L213.446 655.614L213.377 656.587L213.446 656.768L213.155 657.059L212.85 656.851H212.669H212.475V656.503L212.059 656.768L211.782 657.56L211.49 657.379V656.851L210.922 656.768L210.811 657.629L210.464 657.504L210.672 656.684V656.406L210.464 656.503L209.687 655.447L208.633 655.252V655.002L208.342 654.932L208.189 655.725H207.343L206.802 656.35L206.483 656.1L207.01 655.614V655.002H206.691L206.774 655.669H206.566L206.358 655.252L205.762 655.447L205.456 655.252V655.614H205.262V655.252L204.153 655.447L204 655.197L204.153 654.863H205.165L205.137 655.044L205.387 655.002L205.456 654.863H205.651V655.044L206.108 654.724L206.275 653.931L207.717 653.779L207.828 653.667L208.744 653.779L208.883 653.264H209.687L209.951 653.083L210.159 653L210.297 653.431L209.784 653.834L210.075 654.043V654.376L210.45 654.432L210.672 654.599L211.782 654.126L212.35 654.043L212.669 654.474L213.252 654.779L213.377 654.863Z" fill="#D8E6C5"/>
<path d="M214.126 654.724L215.291 654.474L216.303 654.39L217.025 654.474L217.968 654.724L218.079 653.751L218.245 653.5L218.481 653.153L218.925 653.375L218.842 653.57L219.05 653.626L218.925 653.987H219.05L219.105 654.237L219.716 654.112V653.89H220.035V654.237L221.339 653.89L222.906 653.987L223.003 653.5H223.461V654.112L223.294 654.39L223.1 655.502V655.641H223.294L222.906 656.893L223.294 657.254H223.461L223.364 657.629L223.461 657.741L224.029 657.88V657.991H224.099L223.946 658.769L225.916 659.353L226.152 660.048H226.679L226.887 661.188L226.374 661.522L226.97 662.426L227.345 662.203L228.01 663.246L227.844 663.427L228.01 663.816L228.551 664.15L229.217 663.51H229.536L229.827 663.983L229.938 664.72L229.827 665.025L230.341 665.303H230.937V664.942L230.882 664.72L231.561 664.455L231.825 664.72L232.768 664.386L233.822 664.15L234.377 663.913L234.141 664.567L233.961 664.942L234.141 665.025L234.627 664.72L234.807 664.567H235.112V666.165H236L235.834 667.458H234.807V667.681L234.904 667.834L234.557 668.14H234.377L234.044 667.834L233.822 668.265L233.642 668.056L233.267 667.973L232.837 667.458L232.324 667.834L232.713 668.14L232.56 668.418L232.491 668.696L232.713 669.224L233.018 669.446L233.392 669.321V669.585L233.267 669.752V669.989L233.642 670.155H233.961V670.475L233.642 670.781L233.517 670.85L232.56 669.891L232.172 670.058L231.561 670.155L231.672 670.475L231.298 670.92L231.034 670.781L230.937 670.92L230.216 670.336L230.049 670.475L229.938 670.155L229.3 670.336L228.898 670.92L228.496 670.559L228.607 670.42L228.205 670.155L228.01 669.321L227.747 669.071H227.553L227.248 668.946L226.72 668.056L225.319 667.834L225.458 667.152L225.236 666.861L223.766 667.097V666.485L222.018 666.749L221.907 667.375L222.115 667.75L222.337 669.641L221.63 669.432L220.423 668.626L220.049 668.418L219.452 668.195L219.73 667.583L219.452 667.5L219.938 666.582L219.854 665.429L219.646 664.789L218.661 664.358V663.774H219.563L220.257 663.176L220.049 662.871L220.603 662.426L220.825 662.676L221.519 662.203L221.047 661.633L220.52 661.341L220.049 661.188L219.563 661.522H218.731L218.023 661.967L217.358 662.426L216.817 662.273V661.703L217.136 661.049V660.827L216.303 660.757V660.299L215.499 659.993L215.416 659.882L215.984 658.13L215.665 657.963V657.657L215.416 657.56L215.499 657.379L216.165 656.976L218.315 657.629L219.619 657.602L220.007 657.435L220.09 657.296L214.126 654.724Z" fill="#D8E6C5"/>
<defs>
<linearGradient id="paint0_linear_3911_12428" x1="598.239" y1="0" x2="598.239" y2="1257.96" gradientUnits="userSpaceOnUse">
<stop stop-color="#E8F1FF"/>
<stop offset="1" stop-color="#FFFFEB"/>
</linearGradient>
</defs>
</svg>
